<?xml version="1.0" encoding="utf-8"?>
<!-- Generator: Adobe Illustrator 27.9.0, SVG Export Plug-In . SVG Version: 6.00 Build 0)  -->
<svg version="1.1" id="Layer_1" xmlns="http://www.w3.org/2000/svg" xmlns:xlink="http://www.w3.org/1999/xlink" x="0px" y="0px"
	 viewBox="0 0 312.2 39.1" style="enable-background:new 0 0 312.2 39.1;" xml:space="preserve">
<style type="text/css">
	.st0{fill:none;stroke:#231F20;stroke-miterlimit:10;}
</style>
<line class="st0" x1="138.9" y1="25.6" x2="0" y2="25.6"/>
<line class="st0" x1="147.9" y1="0" x2="147.9" y2="39.1"/>
<g>
	<path d="M20.4,0v17.8h-4.3V7.1l-4,10.6H8.6L4.6,7v10.7H0.3V0h5.1l5,12.3L15.3,0H20.4z"/>
	<path d="M34.5,14.6h-6.6l-1.1,3.1h-4.5L28.8,0h5l6.4,17.8h-4.6L34.5,14.6z M33.4,11.3l-2.2-6.5L29,11.3H33.4z"/>
	<path d="M57.5,0v17.8h-4.3v-7.3h-6.7v7.3h-4.3V0h4.3v7h6.7V0H57.5z"/>
	<path d="M64.9,0v17.8h-4.3V0H64.9z"/>
	<path d="M84,17.8h-4.3l-7.2-11v11h-4.3V0h4.3l7.2,11V0H84V17.8z"/>
	<path d="M98.7,1.1c1.4,0.7,2.5,1.8,3.2,3.1c0.8,1.3,1.2,2.9,1.2,4.6s-0.4,3.3-1.2,4.6c-0.8,1.3-1.9,2.4-3.3,3.1s-3,1.1-4.9,1.1H87
		V0h6.7C95.6,0,97.3,0.4,98.7,1.1z M97.3,12.7c0.9-0.9,1.4-2.2,1.4-3.8S98.2,6,97.3,5.1s-2.2-1.4-3.8-1.4h-2V14h2
		C95.1,14,96.4,13.6,97.3,12.7z"/>
	<path d="M114.5,17.8l-3.7-6.7h-1v6.7h-4.3V0h7.3c1.4,0,2.6,0.2,3.6,0.7s1.7,1.2,2.2,2s0.7,1.8,0.7,2.8c0,1.2-0.3,2.2-1,3.2
		c-0.7,0.9-1.6,1.6-2.9,2l4.1,7L114.5,17.8L114.5,17.8z M109.8,8h2.7c0.8,0,1.4-0.2,1.8-0.6s0.6-0.9,0.6-1.6s-0.2-1.2-0.6-1.6
		s-1-0.6-1.8-0.6h-2.7V8z"/>
	<path d="M133,14.6h-6.6l-1.1,3.1h-4.5L127.2,0h5l6.4,17.8H134L133,14.6z M131.9,11.3l-2.2-6.5l-2.2,6.5H131.9z"/>
</g>
<g>
	<path d="M187.5,12.5h-3l-5-7.6v7.6h-3V0.1h3l5,7.6V0.1h3V12.5z"/>
	<path d="M192.7,2.5V5h4v2.3h-4V10h4.5v2.4h-7.5V0.1h7.5v2.4H192.7z"/>
	<path d="M216.1,0.1l-3.2,12.3h-3.6l-2-8.1l-2,8.1h-3.6l-3.1-12.3h3.2l1.8,9l2.2-9h3.3l2.1,9l1.8-9C213,0.1,216.1,0.1,216.1,0.1z"/>
	<path d="M224.4,10.1h3.9v2.3h-6.9V0.1h3V10.1z"/>
	<path d="M237.4,10.3h-4.6l-0.7,2.2H229l4.5-12.3h3.5l4.5,12.3h-3.2L237.4,10.3z M236.6,8l-1.5-4.5L233.6,8H236.6z"/>
	<path d="M245.6,0.1v7.4c0,0.7,0.2,1.3,0.5,1.7c0.4,0.4,0.9,0.6,1.6,0.6c0.7,0,1.2-0.2,1.6-0.6c0.4-0.4,0.6-1,0.6-1.7V0.1h3v7.4
		c0,1.1-0.2,2-0.7,2.8s-1.1,1.3-1.9,1.7c-0.8,0.4-1.7,0.6-2.6,0.6s-1.8-0.2-2.6-0.6c-0.8-0.4-1.4-1-1.8-1.7
		c-0.4-0.8-0.7-1.7-0.7-2.8V0.1H245.6z"/>
	<path d="M266,12.5h-3l-5-7.6v7.6h-3V0.1h3l5,7.6V0.1h3V12.5z"/>
	<path d="M268.5,3c0.5-1,1.3-1.7,2.2-2.2c0.9-0.5,2-0.8,3.2-0.8c1.5,0,2.7,0.4,3.8,1.2c1,0.8,1.7,1.8,2.1,3.2h-3.3
		c-0.2-0.5-0.6-0.9-1-1.2c-0.5-0.3-1-0.4-1.5-0.4c-0.9,0-1.7,0.3-2.2,1c-0.6,0.6-0.9,1.5-0.9,2.6s0.3,1.9,0.9,2.6
		c0.6,0.6,1.3,1,2.2,1c0.6,0,1.1-0.1,1.5-0.4c0.5-0.3,0.8-0.7,1-1.2h3.3c-0.4,1.3-1,2.4-2.1,3.1c-1,0.8-2.3,1.1-3.8,1.1
		c-1.2,0-2.3-0.3-3.2-0.8c-0.9-0.5-1.7-1.3-2.2-2.2s-0.8-2-0.8-3.2C267.7,5.1,268,4,268.5,3z"/>
	<path d="M292.3,0.1v12.3h-3v-5h-4.7v5.1h-3V0.1h3V5h4.7V0.1H292.3z"/>
	<path d="M168.4,38.8l-6.9-9.1v9.1h-5V18.2h5v9l6.8-9h5.9l-8,10.1l8.2,10.5C174.4,38.8,168.4,38.8,168.4,38.8z"/>
	<path d="M189.7,35.2H182l-1.2,3.6h-5.2l7.4-20.5h5.8l7.4,20.5h-5.3L189.7,35.2z M188.4,31.3l-2.5-7.5l-2.5,7.5H188.4z"/>
	<path d="M216.8,38.8h-5l-8.4-12.7v12.7h-5V18.2h5l8.4,12.7V18.2h5V38.8z"/>
	<path d="M233.8,19.5c1.6,0.9,2.9,2.1,3.8,3.6c0.9,1.5,1.3,3.3,1.3,5.4c0,2-0.4,3.8-1.3,5.4s-2.1,2.8-3.8,3.6
		c-1.6,0.9-3.5,1.3-5.7,1.3h-7.7V18.2h7.7C230.3,18.2,232.2,18.7,233.8,19.5z M232.2,32.9c1.1-1,1.6-2.5,1.6-4.4s-0.5-3.4-1.6-4.4
		c-1.1-1.1-2.5-1.6-4.4-1.6h-2.4v11.9h2.4C229.7,34.4,231.2,33.9,232.2,32.9z"/>
	<path d="M246.7,18.2v20.5h-5V18.2H246.7z"/>
	<path d="M269.6,18.2l-7.3,20.5H256l-7.3-20.5h5.3l5.1,15.5l5.1-15.5H269.6z"/>
	<path d="M284.5,35.2h-7.7l-1.2,3.6h-5.2l7.4-20.5h5.8l7.4,20.5h-5.3L284.5,35.2z M283.2,31.3l-2.5-7.5l-2.5,7.5H283.2z"/>
	<path d="M298.2,34.9h6.6v3.9h-11.6V18.2h5V34.9z"/>
	<path d="M312.2,18.2v20.5h-5V18.2H312.2z"/>
</g>
<g>
	<path d="M4.1,37.9H1.7L1.3,39H0l2.2-6.2h1.4L5.9,39H4.6L4.1,37.9z M3.8,36.9l-0.9-2.6L2,36.9H3.8z"/>
	<path d="M7.9,32.9v3.8c0,0.4,0.1,0.7,0.3,1C8.4,37.9,8.7,38,9.1,38c0.4,0,0.7-0.1,0.9-0.3c0.2-0.2,0.3-0.5,0.3-1v-3.8h1.2v3.8
		c0,0.5-0.1,1-0.3,1.3c-0.2,0.4-0.5,0.6-0.9,0.8s-0.8,0.3-1.3,0.3c-0.5,0-0.9-0.1-1.2-0.3C7.5,38.6,7.2,38.4,7,38
		c-0.2-0.4-0.3-0.8-0.3-1.3v-3.8H7.9z"/>
	<path d="M17,32.9v1h-1.6V39h-1.2v-5.1h-1.6v-1H17z"/>
	<path d="M23,32.9V39h-1.2v-2.6h-2.6V39h-1.2v-6.1h1.2v2.5h2.6v-2.5H23z"/>
	<path d="M25.5,38.7c-0.5-0.3-0.9-0.6-1.1-1.1c-0.3-0.5-0.4-1-0.4-1.6c0-0.6,0.1-1.1,0.4-1.6c0.3-0.5,0.7-0.9,1.1-1.1
		c0.5-0.3,1-0.4,1.6-0.4c0.6,0,1.1,0.1,1.6,0.4c0.5,0.3,0.9,0.6,1.1,1.1c0.3,0.5,0.4,1,0.4,1.6c0,0.6-0.1,1.1-0.4,1.6
		c-0.3,0.5-0.7,0.9-1.1,1.1c-0.5,0.3-1,0.4-1.6,0.4C26.5,39.1,26,39,25.5,38.7z M28,37.7c0.3-0.2,0.5-0.4,0.7-0.7
		c0.2-0.3,0.2-0.7,0.2-1.1c0-0.4-0.1-0.8-0.2-1.1c-0.2-0.3-0.4-0.5-0.7-0.7c-0.3-0.2-0.6-0.2-1-0.2c-0.4,0-0.7,0.1-1,0.2
		c-0.3,0.2-0.5,0.4-0.7,0.7c-0.2,0.3-0.2,0.7-0.2,1.1c0,0.4,0.1,0.8,0.2,1.1c0.2,0.3,0.4,0.5,0.7,0.7c0.3,0.2,0.6,0.2,1,0.2
		C27.4,38,27.8,37.9,28,37.7z"/>
	<path d="M34.3,39l-1.4-2.4h-0.6V39h-1.2v-6.1h2.3c0.5,0,0.9,0.1,1.2,0.3c0.3,0.2,0.6,0.4,0.8,0.7c0.2,0.3,0.3,0.6,0.3,1
		c0,0.4-0.1,0.8-0.4,1.1c-0.2,0.3-0.6,0.5-1,0.7l1.5,2.5H34.3z M32.3,35.7h1c0.3,0,0.6-0.1,0.7-0.2c0.2-0.2,0.2-0.4,0.2-0.7
		c0-0.3-0.1-0.5-0.2-0.7c-0.2-0.2-0.4-0.2-0.7-0.2h-1V35.7z"/>
	<path d="M38,32.9V39h-1.2v-6.1H38z"/>
	<path d="M40.2,38.9c-0.3-0.1-0.6-0.4-0.8-0.6c-0.2-0.3-0.3-0.6-0.3-1h1.3c0,0.3,0.1,0.5,0.3,0.6c0.2,0.1,0.4,0.2,0.7,0.2
		c0.3,0,0.5-0.1,0.7-0.2c0.2-0.1,0.2-0.3,0.2-0.5c0-0.2-0.1-0.3-0.2-0.4c-0.1-0.1-0.3-0.2-0.4-0.3c-0.2-0.1-0.4-0.1-0.7-0.2
		c-0.4-0.1-0.7-0.2-1-0.3c-0.2-0.1-0.5-0.3-0.6-0.5c-0.2-0.2-0.3-0.5-0.3-0.9c0-0.4,0.1-0.7,0.3-1c0.2-0.3,0.4-0.5,0.8-0.6
		c0.3-0.1,0.7-0.2,1.1-0.2c0.6,0,1.1,0.2,1.5,0.5s0.6,0.7,0.7,1.3h-1.4c0-0.2-0.1-0.4-0.3-0.5c-0.2-0.1-0.4-0.2-0.7-0.2
		c-0.2,0-0.4,0.1-0.6,0.2c-0.1,0.1-0.2,0.3-0.2,0.5c0,0.2,0.1,0.3,0.2,0.4c0.1,0.1,0.2,0.2,0.4,0.3c0.2,0.1,0.4,0.1,0.7,0.2
		c0.4,0.1,0.7,0.2,1,0.4c0.3,0.1,0.5,0.3,0.7,0.5c0.2,0.2,0.3,0.5,0.3,0.9c0,0.3-0.1,0.6-0.3,0.9c-0.2,0.3-0.4,0.5-0.7,0.7
		c-0.3,0.2-0.7,0.3-1.2,0.3C40.9,39.1,40.5,39,40.2,38.9z"/>
	<path d="M45.8,33.9v1.5h2.1v1h-2.1V38h2.3v1h-3.6v-6.2h3.6v1H45.8z"/>
	<path d="M53.1,33.3c0.5,0.3,0.9,0.6,1.1,1.1c0.3,0.5,0.4,1,0.4,1.6s-0.1,1.2-0.4,1.6c-0.3,0.5-0.6,0.8-1.1,1.1
		C52.6,38.9,52,39,51.4,39h-2.1v-6.1h2.1C52,32.9,52.6,33,53.1,33.3z M52.8,37.5c0.4-0.4,0.5-0.8,0.5-1.5s-0.2-1.1-0.5-1.5
		c-0.4-0.4-0.9-0.5-1.5-0.5h-0.9V38h0.9C52,38,52.5,37.8,52.8,37.5z"/>
	<path d="M57.8,34.3c0.3-0.5,0.6-0.8,1.1-1.1c0.5-0.3,1-0.4,1.6-0.4c0.7,0,1.3,0.2,1.8,0.5c0.5,0.4,0.9,0.8,1.1,1.5h-1.4
		c-0.1-0.3-0.3-0.5-0.6-0.7c-0.3-0.1-0.6-0.2-0.9-0.2c-0.4,0-0.7,0.1-1,0.3c-0.3,0.2-0.5,0.4-0.7,0.7c-0.2,0.3-0.2,0.7-0.2,1.1
		c0,0.4,0.1,0.8,0.2,1.1c0.2,0.3,0.4,0.5,0.7,0.7c0.3,0.2,0.6,0.3,1,0.3c0.3,0,0.6-0.1,0.9-0.2c0.3-0.1,0.5-0.4,0.6-0.7h1.4
		c-0.2,0.6-0.6,1.1-1.1,1.5c-0.5,0.3-1.1,0.5-1.8,0.5c-0.6,0-1.1-0.1-1.6-0.4c-0.5-0.3-0.8-0.6-1.1-1.1c-0.3-0.5-0.4-1-0.4-1.6
		C57.4,35.4,57.5,34.8,57.8,34.3z"/>
	<path d="M69.5,32.9V39h-1.2v-2.6h-2.6V39h-1.2v-6.1h1.2v2.5h2.6v-2.5H69.5z"/>
	<path d="M74.5,37.9H72L71.6,39h-1.3l2.2-6.2H74l2.2,6.2h-1.3L74.5,37.9z M74.2,36.9l-0.9-2.6l-0.9,2.6H74.2z"/>
	<path d="M82.3,39H81l-2.8-4.2V39H77v-6.2h1.2l2.8,4.2v-4.2h1.2V39z"/>
	<path d="M88.7,39h-1.2l-2.8-4.2V39h-1.2v-6.2h1.2l2.8,4.2v-4.2h1.2V39z"/>
	<path d="M91.2,33.9v1.5h2.1v1h-2.1V38h2.3v1H90v-6.2h3.6v1H91.2z"/>
	<path d="M95.9,38.1h2v1h-3.3v-6.1h1.2V38.1z"/>
	<path d="M105,35.7c-0.2,0.3-0.4,0.5-0.7,0.7c-0.3,0.2-0.7,0.3-1.3,0.3h-1V39h-1.2v-6.1h2.3c0.5,0,0.9,0.1,1.2,0.2
		c0.3,0.2,0.6,0.4,0.8,0.7c0.2,0.3,0.3,0.6,0.3,1C105.3,35.1,105.2,35.4,105,35.7z M103.7,35.5c0.2-0.2,0.2-0.4,0.2-0.7
		c0-0.6-0.3-0.9-1-0.9h-1v1.8h1C103.3,35.7,103.6,35.6,103.7,35.5z"/>
	<path d="M109.9,37.9h-2.4L107,39h-1.3l2.2-6.2h1.4l2.2,6.2h-1.3L109.9,37.9z M109.6,36.9l-0.9-2.6l-0.9,2.6H109.6z"/>
	<path d="M115.6,39l-1.4-2.4h-0.6V39h-1.2v-6.1h2.3c0.5,0,0.9,0.1,1.2,0.3c0.3,0.2,0.6,0.4,0.8,0.7c0.2,0.3,0.3,0.6,0.3,1
		c0,0.4-0.1,0.8-0.4,1.1c-0.2,0.3-0.6,0.5-1,0.7L117,39H115.6z M113.7,35.7h1c0.3,0,0.6-0.1,0.7-0.2c0.2-0.2,0.2-0.4,0.2-0.7
		c0-0.3-0.1-0.5-0.2-0.7c-0.2-0.2-0.4-0.2-0.7-0.2h-1V35.7z"/>
	<path d="M122.3,32.9v1h-1.6V39h-1.2v-5.1h-1.6v-1H122.3z"/>
	<path d="M128.4,39h-1.2l-2.8-4.2V39h-1.2v-6.2h1.2l2.8,4.2v-4.2h1.2V39z"/>
	<path d="M130.9,33.9v1.5h2.1v1h-2.1V38h2.3v1h-3.6v-6.2h3.6v1H130.9z"/>
	<path d="M137.5,39l-1.4-2.4h-0.6V39h-1.2v-6.1h2.3c0.5,0,0.9,0.1,1.2,0.3c0.3,0.2,0.6,0.4,0.8,0.7c0.2,0.3,0.3,0.6,0.3,1
		c0,0.4-0.1,0.8-0.4,1.1c-0.2,0.3-0.6,0.5-1,0.7l1.5,2.5H137.5z M135.5,35.7h1c0.3,0,0.6-0.1,0.7-0.2c0.2-0.2,0.2-0.4,0.2-0.7
		c0-0.3-0.1-0.5-0.2-0.7c-0.2-0.2-0.4-0.2-0.7-0.2h-1V35.7z"/>
</g>
</svg>
