<?xml version="1.0" encoding="utf-8"?>
<!-- Generator: Adobe Illustrator 28.0.0, SVG Export Plug-In . SVG Version: 6.00 Build 0)  -->
<svg version="1.1" id="Layer_1" xmlns="http://www.w3.org/2000/svg" xmlns:xlink="http://www.w3.org/1999/xlink" x="0px" y="0px"
	 viewBox="0 0 389.6 56" style="enable-background:new 0 0 389.6 56;" xml:space="preserve">
<style type="text/css">
	.st0{fill:none;stroke:#231F20;stroke-width:0.5;stroke-miterlimit:10;}
	.st1{fill:none;stroke:#000000;stroke-width:0.3292;stroke-miterlimit:10;}
	.st2{enable-background:new    ;}
</style>
<g>
	<g>
		<path d="M249.2,6.7h18.3v4.7h-6.3v19h-5.8v-19h-6.3V6.7z"/>
		<path d="M281.5,30.6c-6.7,0-12.2-5-12.2-12.2c0-7.1,5.5-12.1,12.2-12.1c6.7,0,12.1,5,12.1,12.1C293.6,25.6,288.2,30.6,281.5,30.6z
			 M281.5,25.3c3.8,0,6.3-2.7,6.3-6.8c0-4.2-2.5-6.8-6.3-6.8c-3.9,0-6.3,2.6-6.3,6.8C275.3,22.6,277.7,25.3,281.5,25.3z"/>
		<path d="M295.5,6.7h6.1l3.4,17.2l4.2-17.2h6.4l4,17.2l3.4-17.2h6.1l-6.1,23.7h-6.9l-3.8-15.6l-3.9,15.6h-6.9L295.5,6.7z"/>
		<path d="M346.7,11.3H338v4.8h7.7v4.4H338v5.2h8.8v4.7h-14.4V6.7h14.4V11.3z"/>
		<path d="M360,6.7c5.8,0,8.6,3.3,8.6,7.4c0,3-1.6,5.8-5.2,6.8l5.5,9.3h-6.5l-4.9-8.9h-1.4v8.9h-5.8V6.7H360z M359.7,11.5h-3.5v5.8
			h3.5c2.2,0,3.2-1.1,3.2-3C362.9,12.7,361.9,11.5,359.7,11.5z"/>
		<path d="M380.9,30.6c-5.1,0-9.1-2.5-9.2-7.3h6.1c0.1,1.8,1.4,2.7,3,2.7c1.7,0,2.7-0.8,2.7-2.3c0-4.3-11.8-2-11.7-10.4
			c0-4.4,3.6-6.9,8.6-6.9c5.1,0,8.6,2.5,8.9,7.1H383c-0.1-1.5-1.1-2.4-2.7-2.5c-1.4,0-2.4,0.7-2.4,2.2c0,4.1,11.7,2.3,11.7,10.1
			C389.5,27.3,386.4,30.6,380.9,30.6z"/>
	</g>
	<g>
		<path d="M251.1,43.8v5.3h-1.9V37.3h1.9v5.4l4.6-5.4h2.4l-5.1,5.9l5.2,5.9h-2.5L251.1,43.8z"/>
		<path d="M265.3,49.2c-3.3,0-6-2.5-6-6.1c0-3.5,2.7-6,6-6c3.4,0,6,2.5,6,6C271.3,46.7,268.6,49.2,265.3,49.2z M265.3,47.6
			c2.3,0,4-1.7,4-4.4s-1.7-4.3-4-4.3s-4,1.7-4,4.3C261.2,45.9,262.9,47.6,265.3,47.6z"/>
		<path d="M277.3,37.3c2.8,0,4.2,1.6,4.2,3.5c0,1.4-0.7,2.9-2.7,3.4l2.9,4.9h-2.3l-2.7-4.7h-1.5v4.7h-1.9V37.3H277.3z M277.3,38.9
			h-2.1v4h2.1c1.5,0,2.2-0.8,2.2-2C279.5,39.6,278.8,38.9,277.3,38.9z"/>
		<path d="M290.5,38.9h-4.6v3.5h4.1V44h-4.1v3.6h4.6v1.6H284V37.3h6.5V38.9z"/>
		<path d="M303.7,40.7h-2.3c-0.6-1.2-1.8-1.8-3.2-1.8c-2.3,0-4,1.7-4,4.3s1.7,4.3,4,4.3c2.1,0,3.5-1.3,3.8-3.3h-4.4v-1.6h6.5v1.5
			c-0.4,2.7-2.7,5.1-5.8,5.1c-3.3,0-6-2.5-6-6s2.7-6,6-6C300.7,37.1,302.8,38.4,303.7,40.7z"/>
		<path d="M313.1,46.7h-4.9l-0.8,2.4h-2l4.2-11.8h2.2l4.2,11.8h-2L313.1,46.7z M310.7,39.6l-1.9,5.5h3.9L310.7,39.6z"/>
		<path d="M323.2,49.2c-3.3,0-6-2.5-6-6.1c0-3.5,2.7-6,6-6c3.4,0,6,2.5,6,6C329.3,46.7,326.6,49.2,323.2,49.2z M323.2,47.6
			c2.3,0,4-1.7,4-4.4s-1.7-4.3-4-4.3s-4,1.7-4,4.3C319.2,45.9,320.9,47.6,323.2,47.6z"/>
		<path d="M340.9,37.3v11.8H339l-5.8-8.8v8.8h-1.9V37.3h1.9l5.8,8.8v-8.8H340.9z"/>
		<path d="M351.9,44.3h-2.1v4.8h-1.9V37.3h4.1c2.8,0,4.2,1.6,4.2,3.5C356.1,42.5,355,44.3,351.9,44.3z M351.9,42.7
			c1.5,0,2.2-0.7,2.2-1.9s-0.7-1.9-2.2-1.9h-2.1v3.9L351.9,42.7L351.9,42.7z"/>
		<path d="M365.1,46.7h-4.9l-0.8,2.4h-2l4.2-11.8h2.2l4.2,11.8h-2L365.1,46.7z M362.6,39.6l-1.9,5.5h3.9L362.6,39.6z"/>
		<path d="M373.9,37.3c2.8,0,4.2,1.6,4.2,3.5c0,1.4-0.7,2.9-2.7,3.4l2.9,4.9H376l-2.7-4.7h-1.5v4.7h-1.9V37.3H373.9z M373.9,38.9
			h-2.1v4h2.1c1.5,0,2.2-0.8,2.2-2C376.1,39.6,375.4,38.9,373.9,38.9z"/>
		<path d="M382.5,43.8v5.3h-1.9V37.3h1.9v5.4l4.6-5.4h2.4l-5.1,5.9l5.2,5.9h-2.5L382.5,43.8z"/>
	</g>
</g>
<line class="st0" x1="231.4" y1="0.5" x2="231.4" y2="55.8"/>
<g>
	<g>
		<path d="M13.2,34.6C5.9,34.6,0.2,31,0,24.2h8.8C9,26.7,10.6,28,12.9,28c2.4,0,3.9-1.2,3.9-3.2C16.9,18.6,0,21.9,0.1,10
			c0-6.4,5.2-10,12.3-10c7.4,0,12.3,3.7,12.7,10.1h-8.9c-0.1-2.2-1.7-3.5-3.9-3.5c-2,0-3.5,1-3.5,3.1c0,5.9,16.7,3.2,16.7,14.5
			C25.5,29.9,21.1,34.6,13.2,34.6z"/>
		<path d="M30.4,0.5h8.2v20.2c0,4,2,6.3,5.9,6.3s6-2.3,6-6.3V0.5h8.2v20.2c0,9.3-6.5,14-14.3,14s-14-4.6-14-14
			C30.4,20.7,30.4,0.5,30.4,0.5z"/>
		<path d="M77.8,22.1h-5.1v12.1h-8.2V0.5h13.3c8.3,0,12.4,4.7,12.4,10.9C90.2,16.9,86.4,22.1,77.8,22.1z M77.2,15.6
			c3.3,0,4.7-1.6,4.7-4.2s-1.4-4.2-4.7-4.2h-4.5v8.5h4.5V15.6z"/>
		<path d="M108.3,0.5c8.3,0,12.4,4.8,12.4,10.6c0,4.2-2.3,8.2-7.5,9.8l7.8,13.4h-9.3l-7-12.7h-2v12.7h-8.2V0.5H108.3z M107.8,7.3
			h-5.1v8.4h5.1c3.1,0,4.5-1.6,4.5-4.2S110.9,7.3,107.8,7.3z"/>
		<path d="M146.5,7.1H134v6.8h11v6.4h-11v7.4h12.5v6.6h-20.7V0.5h20.7V7.1z"/>
		<path d="M151.9,0.5h9.7l9.5,23.4l9.4-23.4h9.7v33.8H182V14l-7.6,20.3h-6.6L160.1,14v20.3h-8.2L151.9,0.5L151.9,0.5z"/>
		<path d="M216.7,7.1h-12.5v6.8h11v6.4h-11v7.4h12.5v6.6H196V0.5h20.7V7.1z"/>
	</g>
	<g>
		<g>
			<line class="st1" x1="0.2" y1="41.6" x2="216.5" y2="41.6"/>
		</g>
		<g class="st2">
			<path d="M6.5,54.1H2.6L2,55.8H0L3.5,47h2.2l3.5,8.8h-2L6.5,54.1z M5.9,52.7L4.5,49l-1.4,3.7H5.9z"/>
			<path d="M12.3,47v5.4c0,0.6,0.2,1.1,0.5,1.4c0.4,0.3,0.8,0.5,1.4,0.5s1.1-0.2,1.4-0.5c0.4-0.3,0.5-0.8,0.5-1.4V47H18v5.4
				c0,0.7-0.2,1.4-0.5,1.9c-0.4,0.5-0.8,0.9-1.4,1.2s-1.2,0.4-2,0.4c-0.7,0-1.4-0.1-1.9-0.4c-0.6-0.3-1.1-0.7-1.4-1.2
				c-0.4-0.5-0.5-1.1-0.5-1.9V47H12.3z"/>
			<path d="M26.5,47v1.4H24v7.4h-2v-7.4h-2.5V47H26.5z"/>
			<path d="M35.9,47v8.8H34V52h-4.1v3.7H28V47h1.9v3.6H34V47H35.9z"/>
			<path d="M39.7,55.3c-0.7-0.4-1.4-0.9-1.8-1.6c-0.4-0.7-0.7-1.4-0.7-2.3c0-0.8,0.2-1.6,0.7-2.3c0.4-0.7,1.1-1.2,1.8-1.6
				c0.7-0.4,1.6-0.6,2.5-0.6s1.7,0.2,2.5,0.6c0.7,0.4,1.3,0.9,1.8,1.6c0.4,0.7,0.7,1.4,0.7,2.3S47,53,46.5,53.7s-1,1.2-1.8,1.6
				c-0.7,0.4-1.6,0.6-2.5,0.6C41.3,55.8,40.5,55.7,39.7,55.3z M43.7,53.9c0.4-0.2,0.8-0.6,1-1c0.3-0.4,0.4-1,0.4-1.5
				s-0.1-1.1-0.4-1.5c-0.3-0.4-0.6-0.8-1-1s-1-0.4-1.5-0.4s-1.1,0.1-1.5,0.4s-0.8,0.6-1.1,1s-0.4,1-0.4,1.5s0.1,1.1,0.4,1.5
				c0.3,0.4,0.6,0.8,1.1,1s1,0.4,1.5,0.4S43.3,54.2,43.7,53.9z"/>
			<path d="M53.5,55.8l-2.1-3.4h-0.9v3.4h-1.9V47h3.6c0.7,0,1.4,0.1,1.9,0.4c0.5,0.2,0.9,0.6,1.2,1s0.4,0.9,0.4,1.4
				c0,0.6-0.2,1.1-0.6,1.6c-0.4,0.5-0.9,0.8-1.6,1l2.3,3.6L53.5,55.8L53.5,55.8z M50.5,51h1.6c0.5,0,0.9-0.1,1.2-0.4s0.4-0.6,0.4-1
				s-0.1-0.7-0.4-0.9s-0.7-0.4-1.2-0.4h-1.6V51z"/>
			<path d="M59.2,47v8.8h-1.9V47H59.2z"/>
			<path d="M62.7,55.5c-0.5-0.2-1-0.5-1.3-0.9s-0.5-0.9-0.5-1.4H63c0,0.4,0.2,0.7,0.4,0.8c0.3,0.2,0.6,0.3,1.1,0.3s0.8-0.1,1.1-0.3
				c0.3-0.2,0.4-0.4,0.4-0.8c0-0.3-0.1-0.5-0.3-0.7c-0.2-0.2-0.4-0.3-0.7-0.4c-0.3-0.1-0.6-0.2-1.1-0.3c-0.6-0.2-1.1-0.4-1.5-0.5
				c-0.4-0.2-0.7-0.4-1-0.7c-0.3-0.4-0.4-0.8-0.4-1.3s0.1-1,0.4-1.4c0.3-0.4,0.7-0.7,1.2-0.9s1.1-0.3,1.8-0.3c1,0,1.8,0.2,2.4,0.7
				s1,1.1,1,1.8h-2.1c0-0.3-0.2-0.6-0.4-0.7c-0.3-0.2-0.6-0.3-1.1-0.3c-0.4,0-0.7,0.1-0.9,0.3s-0.4,0.4-0.4,0.7
				c0,0.2,0.1,0.4,0.3,0.6c0.2,0.2,0.4,0.3,0.6,0.4c0.3,0.1,0.6,0.2,1.1,0.4c0.6,0.2,1.1,0.4,1.5,0.5c0.4,0.2,0.7,0.4,1,0.7
				c0.3,0.4,0.4,0.8,0.4,1.3s-0.1,0.9-0.4,1.3c-0.3,0.4-0.7,0.7-1.2,1c-0.5,0.2-1.1,0.4-1.8,0.4C63.8,55.8,63.2,55.8,62.7,55.5z"/>
			<path d="M71.5,48.4v2.2h3.2V52h-3.2v2.3h3.6v1.4h-5.6V47h5.6v1.4H71.5L71.5,48.4z"/>
			<path d="M82.9,47.5c0.7,0.4,1.4,0.9,1.8,1.5c0.4,0.7,0.6,1.4,0.6,2.3S85,53,84.6,53.7s-1,1.2-1.8,1.5s-1.7,0.5-2.7,0.5h-3.3V47
				h3.3C81.2,47,82.1,47.2,82.9,47.5z M82.5,53.5c0.6-0.5,0.8-1.2,0.8-2.1c0-0.9-0.3-1.6-0.8-2.2s-1.3-0.8-2.3-0.8h-1.4v5.8h1.4
				C81.1,54.3,81.9,54,82.5,53.5z"/>
			<path d="M90.1,49c0.4-0.7,1-1.2,1.8-1.6c0.7-0.4,1.6-0.6,2.5-0.6c1.1,0,2,0.3,2.8,0.7c0.8,0.5,1.4,1.2,1.7,2.1h-2.2
				c-0.2-0.4-0.5-0.7-0.9-0.9s-0.9-0.3-1.4-0.3c-0.6,0-1.1,0.1-1.5,0.4s-0.8,0.6-1,1c-0.3,0.4-0.4,1-0.4,1.5s0.1,1.1,0.4,1.5
				s0.6,0.8,1,1s0.9,0.4,1.5,0.4c0.5,0,1-0.1,1.4-0.3s0.7-0.5,0.9-1h2.2c-0.3,0.9-0.9,1.6-1.7,2.1c-0.8,0.5-1.8,0.7-2.8,0.7
				c-0.9,0-1.8-0.2-2.5-0.6c-0.7-0.4-1.3-0.9-1.8-1.6c-0.4-0.7-0.7-1.4-0.7-2.3C89.5,50.5,89.7,49.7,90.1,49z"/>
			<path d="M108.4,47v8.8h-1.9V52h-4.1v3.7h-1.9V47h1.9v3.6h4.1V47H108.4z"/>
			<path d="M116.2,54.1h-3.8l-0.6,1.7h-2l3.5-8.8h2.2l3.5,8.8h-2L116.2,54.1z M115.7,52.7l-1.4-3.7l-1.4,3.7H115.7z"/>
			<path d="M128.4,55.8h-1.9l-4.3-6v6h-1.9V47h1.9l4.3,6.1V47h1.9V55.8z"/>
			<path d="M138.5,55.8h-1.9l-4.3-6v6h-1.9V47h1.9l4.3,6.1V47h1.9V55.8z"/>
			<path d="M142.3,48.4v2.2h3.2V52h-3.2v2.3h3.6v1.4h-5.6V47h5.6v1.4H142.3L142.3,48.4z"/>
			<path d="M149.6,54.3h3.2v1.4h-5.1V47h1.9L149.6,54.3L149.6,54.3z"/>
			<path d="M163.9,51c-0.3,0.4-0.6,0.7-1.1,1s-1.2,0.4-2,0.4h-1.6v3.4h-1.9V47h3.5c0.7,0,1.4,0.1,1.9,0.4c0.5,0.2,0.9,0.6,1.2,1
				s0.4,0.9,0.4,1.4C164.2,50.2,164.1,50.6,163.9,51z M161.9,50.6c0.3-0.2,0.4-0.5,0.4-0.9c0-0.8-0.5-1.3-1.6-1.3h-1.5V51h1.5
				C161.2,51,161.6,50.8,161.9,50.6z"/>
			<path d="M171.5,54.1h-3.8l-0.6,1.7h-2l3.5-8.8h2.2l3.5,8.8h-2L171.5,54.1z M170.9,52.7l-1.4-3.7l-1.4,3.7H170.9z"/>
			<path d="M180.4,55.8l-2.1-3.4h-0.9v3.4h-1.9V47h3.6c0.7,0,1.4,0.1,1.9,0.4c0.5,0.2,0.9,0.6,1.2,1s0.4,0.9,0.4,1.4
				c0,0.6-0.2,1.1-0.6,1.6c-0.4,0.5-0.9,0.8-1.6,1l2.3,3.6L180.4,55.8L180.4,55.8z M177.4,51h1.6c0.5,0,0.9-0.1,1.2-0.4
				c0.3-0.2,0.4-0.6,0.4-1s-0.1-0.7-0.4-0.9c-0.3-0.2-0.7-0.4-1.2-0.4h-1.6V51z"/>
			<path d="M190.8,47v1.4h-2.5v7.4h-2v-7.4h-2.5V47H190.8z"/>
			<path d="M200.3,55.8h-1.9l-4.3-6v6h-1.9V47h1.9l4.3,6.1V47h1.9V55.8z"/>
			<path d="M204.2,48.4v2.2h3.2V52h-3.2v2.3h3.6v1.4h-5.6V47h5.6v1.4H204.2L204.2,48.4L204.2,48.4z"/>
			<path d="M214.5,55.8l-2.1-3.4h-0.9v3.4h-1.9V47h3.6c0.7,0,1.4,0.1,1.9,0.4c0.5,0.2,0.9,0.6,1.2,1s0.4,0.9,0.4,1.4
				c0,0.6-0.2,1.1-0.6,1.6c-0.4,0.5-0.9,0.8-1.6,1l2.3,3.6L214.5,55.8L214.5,55.8z M211.5,51h1.6c0.5,0,0.9-0.1,1.2-0.4
				c0.3-0.2,0.4-0.6,0.4-1s-0.1-0.7-0.4-0.9c-0.3-0.2-0.7-0.4-1.2-0.4h-1.6V51z"/>
		</g>
	</g>
</g>
</svg>
